<svg width="722" height="722" xmlns="http://www.w3.org/2000/svg" xmlns:xlink="http://www.w3.org/1999/xlink" overflow="hidden"><defs><clipPath id="clip0"><rect x="-1" y="-1" width="722" height="722"></rect></clipPath></defs><g clip-path="url(#clip0)" transform="translate(1 1)"><path d="M720 360.049C720 558.784 558.762 720 360 720 161.238 719.902 0 558.784 0 360.049 0 161.118 161.238 0 360 0 558.86 0 720 161.118 720 360.049" fill="#FFFFFF" fill-rule="evenodd"></path><path d="M685.033 259.557C665.175 193.021 572.144 62 405.158 62 247.563 62 138 180.71 138 287.208 138 306.944 139.174 315.835 144.065 334.398 142.011 326.289 141.033 318.18 141.033 310.168 141.033 199.176 252.259 122.283 366.713 122.283 521.569 122.283 647.077 247.637 647.077 402.303 647.077 523.553 577.231 628.487 475.787 678.902L475.787 679C606.578 631.614 700 506.455 700 359.508 700 324.726 695.305 294.047 685.033 259.557" fill="#E4032E" fill-rule="evenodd"></path><path d="M529.428 334.603C472.108 295.705 398.648 311.538 360.108 370.08 328.024 418.946 279.409 425.104 260.629 425.104 199.298 425.104 157.334 382.003 144.912 337.437L144.912 337.437C144.716 336.948 144.618 336.655 144.52 336.167 144.423 335.678 144.325 335.189 144.129 334.603 139.238 316.034 138.064 307.14 138.064 287.398 138.064 180.771 247.521 62.123 405.201 62.123 566.696 62.123 659.133 184.876 683 253.191 682.511 251.921 682.12 250.748 681.826 249.575 635.853 115.974 509.18 20 359.912 20 172.202 20 20 172.073 20 359.72 20 527.43 141.097 671 308.95 671 442.861 671 532.95 595.941 574.13 492.539 596.824 435.952 580.782 369.494 529.428 334.603" fill="#003764" fill-rule="evenodd"></path></g></svg>